<svg xmlns="http://www.w3.org/2000/svg">
 <symbol viewBox="0 0 70 70" id="antena">
   <path d="M67.3162 48.3385L48.8467 29.7337L50.8966 19.6373C51.4255 19.8438 51.9878 19.9517 52.5556 19.9558H52.5696C55.1776 19.9866 57.3169 17.8974 57.3478 15.2893C57.3787 12.6812 55.2894 10.542 52.6813 10.5111C50.0732 10.4803 47.934 12.5695 47.903 15.1776C47.8965 15.7357 47.9888 16.2905 48.1759 16.8163L37.3259 18.1405L19.6276 0.35C19.4104 0.128479 19.1141 0.00247917 18.8039 0C18.4976 0.00160417 18.2044 0.123521 17.9872 0.3395L14.6786 3.6295C14.2231 4.08508 14.2231 4.82358 14.6786 5.27917L16.4589 7.08517C9.56156 19.7681 11.8018 35.4741 21.9702 45.7228C22.0636 45.8121 22.1718 45.8843 22.2899 45.9363C22.2164 46.3311 22.178 46.7317 22.1756 47.1333V60.6667H8.17556C4.95556 60.6705 2.34602 63.28 2.34222 66.5V68.8333C2.34222 69.4776 2.8646 70 3.50889 70H57.1756C57.8199 70 58.3422 69.4776 58.3422 68.8333V66.5C58.3384 63.28 55.7289 60.6705 52.5089 60.6667H38.5089V54.6688C40.7021 55.1288 42.9367 55.3633 45.1776 55.3688C50.5547 55.363 55.8463 54.0225 60.5776 51.4675L62.3672 53.2677C62.5844 53.4892 62.8807 53.6152 63.1909 53.6177C63.4971 53.6161 63.7904 53.4941 64.0076 53.2782L67.3162 49.9882C67.7717 49.5326 67.7717 48.7941 67.3162 48.3385ZM50.9246 13.6348C51.8382 12.726 53.3156 12.7301 54.2243 13.6437C55.1332 14.5574 55.1291 16.0348 54.2154 16.9435C53.7781 17.3785 53.1863 17.6226 52.5694 17.6225H52.5624C51.2738 17.6158 50.2345 16.5658 50.2412 15.2771C50.2444 14.6602 50.4917 14.0699 50.9291 13.6348H50.9246ZM48.1782 21.301L46.8692 27.7445L44.2979 25.158L48.1782 21.301ZM46.8529 19.3282L42.6529 23.5037L39.4037 20.237L46.8529 19.3282ZM52.5089 63C54.4419 63 56.0089 64.567 56.0089 66.5V67.6667H4.67556V66.5C4.67556 64.567 6.24254 63 8.17556 63H52.5089ZM36.1756 58.3333V60.6667H24.5089V58.3333H36.1756ZM24.5089 56V47.1333C24.5089 44.303 27.1257 42 30.3422 42C33.5587 42 36.1756 44.303 36.1756 47.1333V56H24.5089ZM38.5089 52.29V47.1333C38.5089 43.0162 34.8456 39.6667 30.3422 39.6667C27.4305 39.622 24.7078 41.1041 23.1649 43.5738C14.2886 34.2249 12.2898 20.2875 18.1805 8.82073L58.8719 49.7455C52.5885 52.9419 45.3857 53.8418 38.5089 52.29ZM63.2037 50.7943L61.5599 49.1412L18.7922 6.11567L17.1414 4.46133L18.7922 2.81633L36.1499 20.272C36.1581 20.272 36.1627 20.2872 36.1709 20.293L64.8592 49.1493L63.2037 50.7943Z" fill="#212121"/>
   <path d="M30.3527 44.3335H30.3422C28.4092 44.3306 26.8399 45.8952 26.837 47.8283C26.8341 49.7613 28.3987 51.3306 30.3317 51.3335H30.3422C32.2752 51.3364 33.8446 49.7718 33.8475 47.8388C33.8504 45.9057 32.2857 44.3364 30.3527 44.3335ZM31.1694 48.6607C30.9498 48.8791 30.6521 49.0013 30.3422 49.0002C29.6979 48.9968 29.1783 48.4718 29.1817 47.8275C29.1833 47.5191 29.307 47.2239 29.5256 47.0063C29.7427 46.7904 30.036 46.6684 30.3422 46.6668C30.9865 46.6702 31.5061 47.1952 31.5028 47.8395C31.5012 48.1479 31.3775 48.4431 31.1589 48.6607H31.1694Z" fill="#212121"/>
 </symbol>

 <symbol viewBox="0 0 70 70" id="clock">
    <g clip-path="url(#clip0_707_589)">
    <path d="M68.4614 33.4715C68.4576 14.9819 53.4656 -0.00373771 34.9754 6.99302e-07C16.4858 0.00373911 1.50017 14.9963 1.50391 33.4859C1.50711 48.0502 10.9252 60.9413 24.7995 65.3713C24.9319 65.413 25.0697 65.4343 25.2081 65.4338C25.4719 65.4333 25.7304 65.3628 25.9573 65.2287C26.2527 65.0541 26.4732 64.7764 26.5768 64.449L35.0315 37.6521C37.3429 37.6404 39.2068 35.7568 39.1945 33.4459C39.1827 31.1345 37.2997 29.2706 34.9883 29.2824C34.3666 29.285 33.753 29.4282 33.1944 29.7011L22.0251 18.5302C21.4707 17.9951 20.5879 18.0106 20.0528 18.5644C19.5305 19.1054 19.5305 19.962 20.0528 20.503L31.2162 31.6792C30.3596 33.4277 30.8493 35.5383 32.3895 36.7303L24.3338 62.2647C8.41354 56.4002 0.261689 38.7405 6.12618 22.8203C11.9907 6.90002 29.6503 -1.25183 45.5706 4.61266C61.4909 10.4771 69.6427 28.1374 63.7782 44.0571C60.913 51.8351 55.0261 58.1252 47.4548 61.4989L46.5842 57.3989C46.4251 56.6454 45.6844 56.1636 44.9308 56.3233C44.6931 56.3741 44.4726 56.4857 44.291 56.6475L35.8978 64.1409C35.322 64.653 35.2708 65.5347 35.7835 66.1105C35.9501 66.2974 36.1637 66.4362 36.403 66.5126L47.1188 69.9327C47.8521 70.1682 48.6377 69.765 48.8732 69.0312C48.948 68.7994 48.9603 68.5527 48.9101 68.3145L48.0545 64.2915C60.4452 59.0678 68.4902 46.918 68.4614 33.4715ZM34.9829 32.0766C35.753 32.0766 36.3779 32.7014 36.3779 33.4715C36.3779 34.2422 35.753 34.8665 34.9829 34.8665C34.2123 34.8665 33.588 34.2422 33.588 33.4715C33.588 32.7014 34.2123 32.0766 34.9829 32.0766ZM39.5774 64.5916L44.3551 60.3298L45.6737 66.543L39.5774 64.5916Z" fill="#212121"/>
    <path d="M33.5879 6.96722V9.75714C33.5879 10.5278 34.2122 11.1521 34.9828 11.1521C35.753 11.1521 36.3778 10.5278 36.3778 9.75714V6.96722C36.3778 6.19711 35.753 5.57227 34.9828 5.57227C34.2122 5.57227 33.5879 6.19711 33.5879 6.96722Z" fill="#2196F3"/>
    <path d="M8.4787 32.0767C7.70805 32.0767 7.08374 32.7015 7.08374 33.4716C7.08374 34.2423 7.70805 34.8666 8.4787 34.8666H11.2686C12.0393 34.8666 12.6636 34.2423 12.6636 33.4716C12.6636 32.7015 12.0393 32.0767 11.2686 32.0767H8.4787Z" fill="#2196F3"/>
    <path d="M61.4865 34.8666C62.2572 34.8666 62.8815 34.2423 62.8815 33.4716C62.8815 32.7015 62.2572 32.0767 61.4865 32.0767H58.6966C57.9265 32.0767 57.3016 32.7015 57.3016 33.4716C57.3016 34.2423 57.9265 34.8666 58.6966 34.8666H61.4865Z" fill="#2196F3"/>
    </g>
    <defs>
    <clipPath id="clip0_707_589">
    </clipPath>
    </defs>
 </symbol>

  <symbol viewBox="0 0 70 70" id="diagrama">
    <g clip-path="url(#clip0_707_599)">
    <path d="M32.6495 32.7349H34.9816V43.2294H32.6495V32.7349Z" fill="#2196F3"/>
    <path d="M41.978 37.3994H44.3101V43.2297H41.978V37.3994Z" fill="#2196F3"/>
    <path d="M23.3212 40.8975H25.6533V43.2296H23.3212V40.8975Z" fill="#2196F3"/>
    <path d="M16.3248 39.7314H18.6569V43.2296H16.3248V39.7314Z" fill="#2196F3"/>
    <path d="M3.49817 61.8866H59.4689C61.4007 61.8866 62.967 60.3203 62.967 58.3884V53.7242C62.967 51.7923 61.4007 50.226 59.4689 50.226H58.3028V21.1469L64.9262 14.8725C66.4635 15.6304 68.3242 15.1703 69.3302 13.7816C70.3369 12.3935 70.1957 10.4822 68.9966 9.2569C67.7975 8.03163 65.8901 7.84886 64.4798 8.82418C63.0701 9.80007 62.569 11.6499 63.2933 13.2037L58.3028 17.9346V15.2443C58.3028 13.3125 56.7365 11.7462 54.8046 11.7462H8.16239C6.23054 11.7462 4.66422 13.3125 4.66422 15.2443V50.226H3.49817C1.56632 50.226 0 51.7923 0 53.7242V58.3884C0 60.3203 1.56632 61.8866 3.49817 61.8866ZM66.4652 10.5801C67.1091 10.5801 67.6312 11.1022 67.6312 11.7462C67.6312 12.3901 67.1091 12.9122 66.4652 12.9122C65.8212 12.9122 65.2991 12.3901 65.2991 11.7462C65.2991 11.1022 65.8212 10.5801 66.4652 10.5801ZM6.99634 15.2443C6.99634 14.6004 7.51844 14.0783 8.16239 14.0783H54.8046C55.4486 14.0783 55.9707 14.6004 55.9707 15.2443V20.1414L53.6386 22.3574V17.5764C53.6386 16.9325 53.1165 16.4104 52.4725 16.4104H10.4945C9.85055 16.4104 9.32845 16.9325 9.32845 17.5764V46.7278C9.32845 47.3718 9.85055 47.8939 10.4945 47.8939H52.4725C53.1165 47.8939 53.6386 47.3718 53.6386 46.7278V25.5652L55.9707 23.3555V50.226H6.99634V15.2443ZM17.4908 30.4031C15.9131 30.3985 14.5279 31.4495 14.1083 32.9703C13.6886 34.4911 14.3383 36.1041 15.6951 36.9092C17.0513 37.7143 18.7793 37.5121 19.9129 36.415L23.9662 38.4487C24.4371 38.6844 25.0081 38.574 25.3583 38.1806L33.9745 28.4871L42.4443 34.8338C42.8987 35.1743 43.5329 35.1379 43.9452 34.7479L51.3065 27.7749V45.5618H11.6606V18.7425H51.3065V24.562L43.0564 32.3748L34.5154 25.9717C34.0303 25.6084 33.3476 25.6768 32.9445 26.1294L24.2099 35.9572L20.9446 34.3243C20.9685 34.1842 20.9833 34.043 20.989 33.9012C20.989 31.9694 19.4227 30.4031 17.4908 30.4031ZM18.6569 33.9012C18.6569 34.5452 18.1348 35.0673 17.4908 35.0673C16.8469 35.0673 16.3248 34.5452 16.3248 33.9012C16.3248 33.2573 16.8469 32.7352 17.4908 32.7352C18.1348 32.7352 18.6569 33.2573 18.6569 33.9012ZM25.6532 52.5581H37.3138V53.7242C37.3138 54.3681 36.7917 54.8902 36.1477 54.8902H26.8193C26.1753 54.8902 25.6532 54.3681 25.6532 53.7242V52.5581ZM2.33211 53.7242C2.33211 53.0802 2.85422 52.5581 3.49817 52.5581H23.3211V53.7242C23.3211 55.656 24.8874 57.2223 26.8193 57.2223H36.1477C38.0796 57.2223 39.6459 55.656 39.6459 53.7242V52.5581H59.4689C60.1128 52.5581 60.6349 53.0802 60.6349 53.7242V58.3884C60.6349 59.0324 60.1128 59.5545 59.4689 59.5545H3.49817C2.85422 59.5545 2.33211 59.0324 2.33211 58.3884V53.7242Z" fill="#212121"/>
    </g>
    <defs>
    <clipPath id="clip0_707_599">
    </clipPath>
    </defs>
  </symbol>

  <symbol viewBox="0 0 70 70" id="astronavt">
    <path d="M69.9432 9.89619C69.8055 9.47495 69.4416 9.16706 69.0017 9.1028L64.8227 8.49494L62.9525 4.7079C62.5606 3.90987 61.2527 3.90987 60.8607 4.7079L58.9905 8.49494L54.8114 9.10293C54.3715 9.16706 54.0076 9.47399 53.8687 9.89632C53.7322 10.3187 53.8453 10.783 54.1638 11.0922L57.1891 14.0405L56.4751 18.2032C56.4005 18.6407 56.5801 19.0829 56.9383 19.3443C57.3012 19.608 57.7748 19.6406 58.168 19.4329L61.9061 17.467L65.6441 19.4329C65.8145 19.5227 66.0024 19.567 66.1879 19.567C66.4293 19.567 66.6709 19.4924 66.874 19.3441C67.2333 19.0829 67.4129 18.6406 67.3372 18.2031L66.6232 14.0403L69.6484 11.0921C69.9653 10.7817 70.0798 10.3185 69.9432 9.89619ZM64.5556 12.7989C64.2815 13.0661 64.1554 13.4534 64.2207 13.8314L64.6384 16.2686L62.4498 15.1182C62.2795 15.0284 62.0928 14.9841 61.9061 14.9841C61.7194 14.9841 61.5339 15.0284 61.3623 15.1182L59.1736 16.2686L59.5912 13.8314C59.6566 13.4534 59.5305 13.0673 59.2564 12.7989L57.4842 11.0723L59.932 10.7164C60.3123 10.6616 60.6402 10.4224 60.8105 10.0782L61.9048 7.86151L62.9991 10.0782C63.1695 10.4223 63.4974 10.6616 63.8777 10.7164L66.3254 11.0723L64.5556 12.7989Z" fill="#2196F3"/>
    <path d="M57.1669 44.8921H54.8335V47.2255H57.1669V44.8921Z" fill="#2196F3"/>
    <path d="M57.1669 49.5591H54.8335V51.8925H57.1669V49.5591Z" fill="#2196F3"/>
    <path d="M59.5004 47.2256H57.167V49.559H59.5004V47.2256Z" fill="#2196F3"/>
    <path d="M54.8337 47.2256H52.5002V49.559H54.8337V47.2256Z" fill="#2196F3"/>
    <path d="M49.0003 57.7261H46.6669V60.0595H49.0003V57.7261Z" fill="#2196F3"/>
    <path d="M49.0003 62.3926H46.6669V64.726H49.0003V62.3926Z" fill="#2196F3"/>
    <path d="M51.3337 60.0591H49.0002V62.3925H51.3337V60.0591Z" fill="#2196F3"/>
    <path d="M46.6668 60.0591H44.3334V62.3925H46.6668V60.0591Z" fill="#2196F3"/>
    <path d="M35 53.0591H32.6666V55.3925H35V53.0591Z" fill="#2196F3"/>
    <path d="M35 57.7261H32.6666V60.0595H35V57.7261Z" fill="#2196F3"/>
    <path d="M37.3334 55.3926H35V57.726H37.3334V55.3926Z" fill="#2196F3"/>
    <path d="M32.6665 55.3926H30.3331V57.726H32.6665V55.3926Z" fill="#2196F3"/>
    <path d="M12.8331 13.3916H10.4996V15.725H12.8331V13.3916Z" fill="#2196F3"/>
    <path d="M12.8331 18.0586H10.4996V20.392H12.8331V18.0586Z" fill="#2196F3"/>
    <path d="M15.1663 15.7251H12.8329V18.0585H15.1663V15.7251Z" fill="#2196F3"/>
    <path d="M10.4996 15.7251H8.16614V18.0585H10.4996V15.7251Z" fill="#2196F3"/>
    <path d="M54.0635 30.974C53.4347 30.1258 52.5119 29.5798 51.4642 29.4327C50.4118 29.2834 49.3734 29.5599 48.5334 30.2028L45.7952 32.3015L45.794 32.3028L41.6428 35.4027L38.6724 34.2196C43.9691 31.8431 47.6711 26.5452 47.6711 20.3944C47.6711 12.0316 40.8401 5.22754 32.4436 5.22754C24.047 5.22754 17.2161 12.0316 17.2161 20.3944C17.2161 23.4255 18.1226 26.2441 19.6662 28.616L13.6204 28.5635C13.6168 28.5635 13.6134 28.5635 13.6099 28.5635C13.5911 28.5635 13.5761 28.5728 13.5586 28.574C13.4431 28.5786 13.3298 28.602 13.2191 28.6417C13.1911 28.6522 13.162 28.6581 13.1352 28.6708C13.1212 28.6767 13.1071 28.6778 13.0932 28.6847L6.02075 32.1766C6.01952 32.1766 6.01843 32.1766 6.01843 32.1777L1.8766 34.1694C1.83107 34.1893 1.78445 34.2161 1.73892 34.2464C0.0880191 35.3454 -0.474314 37.5038 0.429958 39.2677C0.911763 40.2058 1.73195 40.8965 2.73999 41.2126C3.12856 41.3339 3.52518 41.3935 3.91949 41.3935C4.55305 41.3935 5.18074 41.2383 5.75578 40.9315L8.79154 39.3168L13.7441 36.7595L16.7122 36.742L4.80844 48.5886C4.80735 48.5898 4.80612 48.5898 4.80489 48.5909L1.87647 51.5076C1.18466 52.1959 0.8043 53.1094 0.8043 54.0836C0.8043 55.0567 1.18466 55.9724 1.87647 56.6621C2.587 57.369 3.52149 57.7237 4.45598 57.7237C5.3917 57.7237 6.32495 57.369 7.03782 56.6621L9.91251 53.799L13.7206 50.9557L15.6912 52.9181L11.8375 56.7553C11.8364 56.7565 11.8352 56.7565 11.834 56.7576L8.90556 59.6743C8.21375 60.3627 7.8334 61.2761 7.8334 62.2504C7.8334 63.2234 8.21375 64.1392 8.90556 64.8288C9.6161 65.5358 10.5518 65.8904 11.4863 65.8904C12.4208 65.8904 13.3565 65.5358 14.0681 64.8288L16.9977 61.9121L21.6842 57.2455C21.6854 57.2442 21.6854 57.2431 21.6865 57.2419L23.8951 55.0544L23.8869 55.0462C23.9008 55.0322 23.9207 55.0274 23.9347 55.0124L35.2353 42.635L42.8281 43.7154C42.8829 43.7236 42.9377 43.727 42.9925 43.727C43.1338 43.727 43.2702 43.6933 43.402 43.6431C43.4406 43.6292 43.4743 43.6104 43.5106 43.5918C43.5526 43.5708 43.5968 43.5591 43.6366 43.5323L50.6659 38.8657C50.6916 38.8482 50.7055 38.8201 50.73 38.8015C50.758 38.7794 50.793 38.7701 50.8186 38.7455L53.5999 36.1403C55.0471 34.7843 55.2466 32.563 54.0635 30.974ZM4.66024 38.8724C4.28111 39.0754 3.85058 39.1161 3.43878 38.9856C3.03039 38.8584 2.69912 38.5795 2.50538 38.2027C2.15305 37.5166 2.35718 36.6813 2.97433 36.2298L5.84793 34.8473L6.53974 36.8691L6.83027 37.7184L4.66024 38.8724ZM12.3102 34.8742L8.92333 36.6243L8.36456 34.9909L7.96328 33.8171L12.3967 31.6283L12.3102 34.8742ZM45.3402 20.3921C45.3402 22.401 44.8607 24.2959 44.03 25.9909L34.8832 21.8364C34.7875 20.5822 34.1366 19.4844 33.1589 18.8006L36.3614 8.16868C41.5626 9.82314 45.3402 14.6754 45.3402 20.3921ZM19.5519 20.3921C19.5519 13.3161 25.3363 7.55849 32.446 7.55849C32.9991 7.55849 33.5403 7.60511 34.0759 7.67279L30.9433 18.0715C30.9014 18.0703 30.8617 18.0587 30.8185 18.0587C28.5597 18.0587 26.7222 19.8903 26.7222 22.1421C26.7222 24.3938 28.5597 26.2255 30.8185 26.2255C32.3375 26.2255 33.65 25.3868 34.3582 24.1593L42.8073 27.9977C40.4564 31.1617 36.6938 33.2256 32.4459 33.2256C25.3363 33.2256 19.5519 27.4681 19.5519 20.3921ZM32.5814 22.1421C32.5814 23.1069 31.7903 23.8921 30.8185 23.8921C29.8467 23.8921 29.0556 23.1069 29.0556 22.1421C29.0556 21.1773 29.8467 20.3921 30.8185 20.3921C31.7903 20.3921 32.5814 21.1773 32.5814 22.1421ZM5.39183 55.0076C4.87503 55.5198 4.03843 55.5187 3.52286 55.0088C3.2743 54.7603 3.13785 54.4326 3.13785 54.0836C3.13785 53.736 3.2743 53.4081 3.52286 53.162L5.6274 51.0654L7.48941 52.9193L5.39183 55.0076ZM12.4222 63.1745C11.9054 63.6866 11.0677 63.6879 10.552 63.1757C10.3034 62.9272 10.1669 62.5994 10.1669 62.2505C10.1669 61.9028 10.3034 61.575 10.552 61.3289L12.6579 59.2312L13.5388 60.1074L14.5211 61.0851L12.4222 63.1745ZM20.0383 55.5863C20.0371 55.5874 20.036 55.5874 20.0348 55.5887L16.1742 59.4387L15.2933 58.5625L14.311 57.5848L18.168 53.7453C18.168 53.7453 18.168 53.7453 18.168 53.7442C18.1692 53.7429 18.1703 53.7429 18.1715 53.7418C18.259 53.6543 18.3139 53.5493 18.3676 53.4456C18.3828 53.4152 18.4119 53.3895 18.4248 53.3581C18.461 53.2682 18.4667 53.1714 18.4808 53.0768C18.4878 53.0231 18.5112 52.9731 18.5112 52.9181C18.5112 52.8399 18.4831 52.7642 18.4669 52.687C18.4529 52.617 18.4529 52.5458 18.426 52.4783C18.3817 52.3686 18.3058 52.2718 18.2265 52.1772C18.2044 52.1515 18.1962 52.1188 18.1717 52.0944C18.1717 52.0944 18.1717 52.0944 18.1705 52.0944C18.1692 52.0933 18.1692 52.0908 18.1681 52.0897L14.6529 48.5897C14.6156 48.5523 14.5677 48.5372 14.5257 48.5057C14.464 48.4579 14.4045 48.4136 14.3356 48.3797C14.2691 48.347 14.2014 48.3271 14.1314 48.3084C14.0568 48.2874 13.9845 48.2711 13.9063 48.2652C13.835 48.2606 13.7686 48.2675 13.6975 48.2757C13.6193 48.285 13.5459 48.2956 13.47 48.32C13.3964 48.3434 13.3312 48.3795 13.2635 48.4181C13.2203 48.4425 13.1714 48.4507 13.1305 48.4811L9.25133 51.3768L7.28077 49.4145L12.5285 44.1948L22.0674 53.5761L20.0383 55.5863ZM34.9544 40.2374C34.9207 40.2327 34.8891 40.2456 34.8553 40.2433C34.7701 40.2386 34.6885 40.2445 34.6034 40.2584C34.5369 40.2701 34.4739 40.2829 34.4108 40.3051C34.3362 40.3308 34.2685 40.3658 34.1996 40.4077C34.1343 40.4474 34.0748 40.4894 34.0176 40.5419C33.9896 40.5663 33.9558 40.5781 33.9301 40.606L23.6527 51.8622L14.185 42.5508L20.3825 36.3861C20.8387 35.9311 20.841 35.1925 20.386 34.7352C20.1562 34.5054 19.854 34.3922 19.5519 34.3934V34.3923L14.6984 34.4214L14.7591 30.9051L21.5492 30.9635C24.3166 33.7939 28.176 35.5591 32.446 35.5591C33.4027 35.5591 34.3361 35.4599 35.2448 35.2907C35.3323 35.3607 35.4186 35.4319 35.5284 35.4762L40.7995 37.5762L41.1331 39.2352L41.5228 41.1719L34.9544 40.2374ZM43.7944 40.627L43.1096 37.2191L46.2736 34.8566L47.102 35.9556L48.3445 37.6052L43.7944 40.627ZM52.0055 34.4343L50.1726 36.1516L48.1356 33.4473L49.9544 32.0531C50.2938 31.7919 50.7221 31.6856 51.1421 31.7405C51.5644 31.7999 51.9378 32.0205 52.1921 32.3623C52.6658 33.0005 52.5853 33.8907 52.0055 34.4343Z" fill="#212121"/>
    <path d="M29.7545 40.5651L25.0668 35.8984C24.613 35.4447 23.8755 35.4447 23.4205 35.8984L18.734 40.5651C18.5147 40.7857 18.391 41.0819 18.391 41.3923C18.391 41.7026 18.5135 42.0002 18.734 42.2195L23.4205 46.8861C23.648 47.1124 23.9468 47.2256 24.2443 47.2256C24.5418 47.2256 24.8404 47.1124 25.0668 46.8861L29.7545 42.2195C29.9738 42.0002 30.0987 41.7026 30.0987 41.3923C30.0987 41.0819 29.9749 40.7844 29.7545 40.5651ZM24.2443 44.4129L21.2109 41.3923L24.2443 38.3717L27.2788 41.3923L24.2443 44.4129Z" fill="#212121"/>
    <path d="M37.5468 11.0923L36.9833 13.358C37.1385 13.3966 40.7844 14.3462 40.7844 18.0586H43.1178C43.1177 13.6461 39.4742 11.5718 37.5468 11.0923Z" fill="#212121"/>
    <path d="M43.1178 20.3921H40.7844V22.7255H43.1178V20.3921Z" fill="#212121"/>
  </symbol>

 <!-- SOCIAL MEDIA -->

  <symbol viewBox="0 0 20 20" id = "instagram" >
    <g clip-path="url(#clip0_707_728)">
    <path d="M19.9804 5.88005C19.9336 4.81738 19.7617 4.0868 19.5156 3.45374C19.2616 2.78176 18.8709 2.18014 18.359 1.68002C17.8589 1.1721 17.2533 0.777435 16.5891 0.527447C15.9524 0.281274 15.2256 0.109427 14.163 0.0625732C13.0924 0.0117516 12.7525 0 10.0371 0C7.32173 0 6.98185 0.0117516 5.91521 0.0586052C4.85253 0.105459 4.12195 0.277459 3.48904 0.523479C2.81692 0.777435 2.2153 1.16814 1.71517 1.68002C1.20726 2.18014 0.812743 2.78573 0.562603 3.44992C0.31643 4.0868 0.144583 4.81341 0.0977294 5.87609C0.0469078 6.9467 0.0351562 7.28658 0.0351562 10.002C0.0351562 12.7173 0.0469078 13.0572 0.0937614 14.1239C0.140615 15.1865 0.312615 15.9171 0.558787 16.5502C0.812743 17.2221 1.20726 17.8238 1.71517 18.3239C2.2153 18.8318 2.82088 19.2265 3.48508 19.4765C4.12195 19.7226 4.84856 19.8945 5.91139 19.9413C6.97788 19.9883 7.31791 19.9999 10.0333 19.9999C12.7487 19.9999 13.0885 19.9883 14.1552 19.9413C15.2179 19.8945 15.9484 19.7226 16.5813 19.4765C17.9254 18.9568 18.9881 17.8941 19.5078 16.5502C19.7538 15.9133 19.9258 15.1865 19.9727 14.1239C20.0195 13.0572 20.0313 12.7173 20.0313 10.002C20.0313 7.28658 20.0273 6.9467 19.9804 5.88005ZM18.1794 14.0457C18.1364 15.0225 17.9723 15.5499 17.8356 15.9015C17.4995 16.7728 16.808 17.4643 15.9367 17.8004C15.5851 17.9372 15.0538 18.1012 14.0809 18.1441C13.026 18.1911 12.7096 18.2027 10.0411 18.2027C7.37255 18.2027 7.05221 18.1911 6.00113 18.1441C5.02438 18.1012 4.49693 17.9372 4.1453 17.8004C3.71171 17.6402 3.31704 17.3862 2.9967 17.0541C2.6646 16.7298 2.41065 16.3391 2.2504 15.9055C2.11365 15.5539 1.94959 15.0225 1.90671 14.0497C1.8597 12.9948 1.8481 12.6783 1.8481 10.0097C1.8481 7.34122 1.8597 7.02087 1.90671 5.96995C1.94959 4.99319 2.11365 4.46575 2.2504 4.11412C2.41065 3.68038 2.6646 3.28586 3.00067 2.96536C3.32483 2.63327 3.71553 2.37931 4.14927 2.21921C4.5009 2.08247 5.03231 1.9184 6.0051 1.87537C7.05999 1.82851 7.37652 1.81676 10.0449 1.81676C12.7174 1.81676 13.0337 1.82851 14.0848 1.87537C15.0616 1.9184 15.589 2.08247 15.9407 2.21921C16.3742 2.37931 16.7689 2.63327 17.0893 2.96536C17.4213 3.28967 17.6753 3.68038 17.8356 4.11412C17.9723 4.46575 18.1364 4.99701 18.1794 5.96995C18.2263 7.02484 18.238 7.34122 18.238 10.0097C18.238 12.6783 18.2263 12.9908 18.1794 14.0457Z" />
    <path d="M10.0371 4.86426C7.20074 4.86426 4.89941 7.16543 4.89941 10.002C4.89941 12.8385 7.20074 15.1397 10.0371 15.1397C12.8737 15.1397 15.1749 12.8385 15.1749 10.002C15.1749 7.16543 12.8737 4.86426 10.0371 4.86426ZM10.0371 13.3347C8.19702 13.3347 6.70442 11.8422 6.70442 10.002C6.70442 8.16172 8.19702 6.66927 10.0371 6.66927C11.8774 6.66927 13.3698 8.16172 13.3698 10.002C13.3698 11.8422 11.8774 13.3347 10.0371 13.3347Z" />
    <path d="M16.5775 4.66134C16.5775 5.3237 16.0404 5.86076 15.3779 5.86076C14.7155 5.86076 14.1785 5.3237 14.1785 4.66134C14.1785 3.99882 14.7155 3.46191 15.3779 3.46191C16.0404 3.46191 16.5775 3.99882 16.5775 4.66134Z" />
    </g>
    <defs>
    <clipPath id="clip0_707_728">
    </clipPath>
    </defs>
  </symbol>


  <symbol  viewBox="0 0 20 20" id = "twitter">
    <g clip-path="url(#clip0_707_722)">
    <path d="M20 3.79875C19.2563 4.125 18.4637 4.34125 17.6375 4.44625C18.4875 3.93875 19.1363 3.14125 19.4412 2.18C18.6488 2.6525 17.7738 2.98625 16.8412 3.1725C16.0887 2.37125 15.0162 1.875 13.8462 1.875C11.5763 1.875 9.74875 3.7175 9.74875 5.97625C9.74875 6.30125 9.77625 6.61375 9.84375 6.91125C6.435 6.745 3.41875 5.11125 1.3925 2.6225C1.03875 3.23625 0.83125 3.93875 0.83125 4.695C0.83125 6.115 1.5625 7.37375 2.6525 8.1025C1.99375 8.09 1.3475 7.89875 0.8 7.5975C0.8 7.61 0.8 7.62625 0.8 7.6425C0.8 9.635 2.22125 11.29 4.085 11.6712C3.75125 11.7625 3.3875 11.8062 3.01 11.8062C2.7475 11.8062 2.4825 11.7913 2.23375 11.7362C2.765 13.36 4.2725 14.5538 6.065 14.5925C4.67 15.6838 2.89875 16.3412 0.98125 16.3412C0.645 16.3412 0.3225 16.3263 0 16.285C1.81625 17.4563 3.96875 18.125 6.29 18.125C13.835 18.125 17.96 11.875 17.96 6.4575C17.96 6.27625 17.9538 6.10125 17.945 5.9275C18.7588 5.35 19.4425 4.62875 20 3.79875Z" />
    </g>
    <defs>
    <clipPath id="clip0_707_722">
    </clipPath>
    </defs>
  </symbol>


  <symbol viewBox="0 0 20 20" id = "facebook">
    <g clip-path="url(#clip0_707_718)">
    <path d="M13.3309 3.32083H15.1567V0.140833C14.8417 0.0975 13.7584 0 12.4967 0C9.86422 0 8.06088 1.65583 8.06088 4.69917V7.5H5.15588V11.055H8.06088V20H11.6226V11.0558H14.4101L14.8526 7.50083H11.6217V5.05167C11.6226 4.02417 11.8992 3.32083 13.3309 3.32083Z" />
    </g>
    <defs>
    <clipPath id="clip0_707_718">
    </clipPath>
    </defs>
  </symbol>


  <symbol viewBox="0 0 20 20" id = "IN">
    <g clip-path="url(#clip0_707_712)">
    <path d="M19.9951 19.9999V19.999H20.0001V12.664C20.0001 9.07569 19.2276 6.31152 15.0326 6.31152C13.0159 6.31152 11.6626 7.41819 11.1101 8.46736H11.0517V6.64652H7.07422V19.999H11.2159V13.3874C11.2159 11.6465 11.5459 9.96319 13.7017 9.96319C15.8259 9.96319 15.8576 11.9499 15.8576 13.499V19.9999H19.9951Z" />
    <path d="M0.329956 6.64746H4.47662V20H0.329956V6.64746Z" />
    <path d="M2.40167 0C1.07583 0 0 1.07583 0 2.40167C0 3.7275 1.07583 4.82583 2.40167 4.82583C3.7275 4.82583 4.80333 3.7275 4.80333 2.40167C4.8025 1.07583 3.72667 0 2.40167 0V0Z" />
    </g>
    <defs>
    <clipPath id="clip0_707_712">
    </clipPath>
    </defs>
  </symbol>

  <symbol viewBox="0 0 41 47" id = "item1" >
    <path fill-rule="evenodd" clip-rule="evenodd" d="M6 0L13.0078 6.63413L0 6.62646V38.8137H34V26.507L41 33.1338V0H6ZM33.6924 25.7283L13.8226 6.91796H33.6924V25.7283ZM27.5231 34.1055H5.38008V12.4579H6.9453V32.6397H27.5231V34.1055ZM10.6089 43.0991L9.79102 44.7837L8.97314 43.0991H8.28711L9.48096 45.3452V46.6538H10.1011V45.3452L11.2925 43.0991H10.6089ZM11.6367 46.6538L11.9248 45.8262H13.3018L13.5923 46.6538H14.2368L12.8916 43.0991H12.3374L10.9946 46.6538H11.6367ZM12.6133 43.8535L13.1284 45.3281H12.0981L12.6133 43.8535ZM15.8701 45.2427C15.7806 45.3794 15.7358 45.5299 15.7358 45.6943C15.7358 45.9938 15.8408 46.2371 16.0508 46.4243C16.2624 46.6099 16.5439 46.7026 16.8955 46.7026C17.2471 46.7026 17.5498 46.6074 17.8037 46.417L18.0039 46.6538H18.6924L18.1699 46.0361C18.375 45.7562 18.4775 45.3973 18.4775 44.9595H17.9624C17.9624 45.1987 17.9128 45.416 17.8135 45.6113L17.1274 44.8008L17.3691 44.625C17.54 44.5013 17.6629 44.3776 17.7378 44.2539C17.8127 44.1286 17.8501 43.9919 17.8501 43.8438C17.8501 43.6191 17.7671 43.4312 17.6011 43.2798C17.4367 43.1268 17.2251 43.0503 16.9663 43.0503C16.6798 43.0503 16.452 43.1317 16.2827 43.2944C16.1134 43.4556 16.0288 43.6753 16.0288 43.9536C16.0288 44.0675 16.0557 44.1855 16.1094 44.3076C16.1647 44.4297 16.2616 44.5778 16.3999 44.752C16.1362 44.9408 15.9596 45.1043 15.8701 45.2427ZM17.4741 46.0288C17.3 46.1623 17.1128 46.229 16.9126 46.229C16.7352 46.229 16.5936 46.1777 16.4878 46.0752C16.382 45.9727 16.3291 45.8392 16.3291 45.6748C16.3291 45.4844 16.4268 45.3151 16.6221 45.167L16.6978 45.1133L17.4741 46.0288ZM16.8369 44.4541C16.6693 44.2474 16.5854 44.0757 16.5854 43.939C16.5854 43.8201 16.6196 43.7217 16.688 43.6436C16.7563 43.5654 16.8483 43.5264 16.9639 43.5264C17.0713 43.5264 17.16 43.5597 17.23 43.6265C17.3 43.6916 17.335 43.7705 17.335 43.8633C17.335 44.0033 17.2845 44.118 17.1836 44.2075L17.1079 44.2686L16.8369 44.4541ZM22.623 46.3853C22.8672 46.172 23.0072 45.8758 23.043 45.4966H22.4277C22.3952 45.7505 22.3179 45.932 22.1958 46.041C22.0737 46.1501 21.8914 46.2046 21.6489 46.2046C21.3836 46.2046 21.1818 46.1037 21.0435 45.9019C20.9067 45.7 20.8384 45.4071 20.8384 45.0229V44.708C20.8416 44.3288 20.9149 44.0415 21.0581 43.8462C21.203 43.6493 21.4097 43.5508 21.6782 43.5508C21.9093 43.5508 22.0843 43.6077 22.2031 43.7217C22.3236 43.834 22.3984 44.0179 22.4277 44.2734H23.043C23.0039 43.8844 22.8647 43.5833 22.6255 43.3701C22.3862 43.1569 22.0705 43.0503 21.6782 43.0503C21.3869 43.0503 21.1297 43.1195 20.9067 43.2578C20.6854 43.3962 20.5153 43.5931 20.3965 43.8486C20.2777 44.1042 20.2183 44.3996 20.2183 44.7349V45.0669C20.2231 45.394 20.2842 45.6813 20.4014 45.9287C20.5186 46.1761 20.6846 46.3674 20.8994 46.5024C21.1159 46.6359 21.3657 46.7026 21.6489 46.7026C22.0542 46.7026 22.3789 46.5968 22.623 46.3853ZM26.2534 45.8872C26.3739 45.6235 26.4341 45.3175 26.4341 44.9692V44.7715C26.4325 44.4248 26.3706 44.1213 26.2485 43.8608C26.1265 43.5988 25.9531 43.3986 25.7285 43.2603C25.5055 43.1203 25.2492 43.0503 24.9595 43.0503C24.6698 43.0503 24.4126 43.1211 24.188 43.2627C23.965 43.4027 23.7917 43.6053 23.668 43.8706C23.5459 44.1359 23.4849 44.4419 23.4849 44.7886V44.9888C23.4865 45.3289 23.5483 45.6292 23.6704 45.8896C23.7941 46.1501 23.9683 46.3511 24.1929 46.4927C24.4191 46.6326 24.6763 46.7026 24.9644 46.7026C25.2557 46.7026 25.5129 46.6326 25.7358 46.4927C25.9604 46.3511 26.133 46.1493 26.2534 45.8872ZM25.5918 43.8779C25.7415 44.0879 25.8164 44.3898 25.8164 44.7837V44.9692C25.8164 45.3696 25.7423 45.674 25.5942 45.8823C25.4478 46.0907 25.2378 46.1948 24.9644 46.1948C24.6942 46.1948 24.4826 46.0882 24.3296 45.875C24.1782 45.6618 24.1025 45.3599 24.1025 44.9692V44.7642C24.1058 44.3817 24.1823 44.0863 24.332 43.8779C24.4834 43.668 24.6925 43.563 24.9595 43.563C25.2329 43.563 25.4437 43.668 25.5918 43.8779Z" />
  </symbol>

  <symbol  viewBox="0 0 40 52" id = "item2">
    <path fill-rule="evenodd" clip-rule="evenodd" d="M17.1136 2.93452H16.977C16.7671 2.92181 16.5571 2.91672 16.3471 2.91163H16.3471H16.3269H15.8918C15.4946 2.91163 15.0898 2.92181 14.6876 2.94215C14.6573 2.93994 14.6269 2.93994 14.5966 2.94215C10.9522 3.14863 7.38171 4.05951 4.08049 5.62492L3.6479 5.83344V27.9746L4.65979 27.6313C5.54773 27.3261 6.49384 27.0515 7.47285 26.7972C10.1193 26.1178 12.8367 25.7567 15.568 25.7216V28.6306C15.2062 28.6332 14.8546 28.6434 14.503 28.6612H14.4195C12.3175 28.7765 10.2317 29.0967 8.19129 29.6173C5.60716 30.2643 3.11433 31.2357 0.771606 32.5086V4.11189C3.20469 2.69275 5.82533 1.62687 8.55557 0.945963C10.9527 0.327052 13.4169 0.00930695 15.8918 0H16.3193C16.8303 0.0127146 17.3287 0.0356008 17.7967 0.0712015C19.0297 0.157776 20.2528 0.352628 21.4521 0.653528V3.51685C20.2874 3.24551 19.1032 3.06695 17.9105 2.98284C17.8863 2.98079 17.8621 2.97872 17.8379 2.97666C17.5911 2.95561 17.344 2.93452 17.1136 2.93452ZM22.1528 5.86138C22.7877 5.9097 23.4455 5.93259 24.1108 5.93259C26.7125 5.92307 29.3031 5.59083 31.8239 4.94339C34.4068 4.29396 36.8986 3.32178 39.2411 2.04956V29.9402C36.8067 31.3585 34.1853 32.4243 31.4546 33.1061C29.0571 33.7227 26.5931 34.0395 24.1184 34.0496C22.2433 34.0647 20.3737 33.8443 18.553 33.3935V5.32229C18.983 5.42146 19.4257 5.51301 19.876 5.58929C20.6147 5.7139 21.3939 5.80544 22.1528 5.86138ZM36.3471 6.07753L35.3352 6.41828C34.4042 6.73106 33.4657 7.01078 32.5221 7.25998C29.7749 7.96596 26.9514 8.3281 24.1158 8.33818C23.4556 8.33818 22.8485 8.32038 22.2616 8.28224L21.4546 8.22883V28.3178V31.0057L22.1477 31.0667C22.7903 31.1227 23.4531 31.1506 24.1209 31.1506C26.3544 31.1412 28.5781 30.8533 30.7412 30.2937C32.5223 29.8469 34.2552 29.2243 35.9145 28.4348L36.3471 28.2263V6.07753Z"/>
    <path d="M2.73713 42.212C2.59166 42.0611 2.41629 41.9427 2.22236 41.8642C2.02844 41.7858 1.82029 41.7492 1.61141 41.7568C1.38879 41.7539 1.16781 41.7954 0.961267 41.8789C0.771901 41.9543 0.599767 42.0677 0.455322 42.212C0.312451 42.3568 0.201292 42.5301 0.128988 42.7206C0.0496792 42.9203 0.0101425 43.1337 0.0126205 43.3487V47.1427C0.00357283 47.4101 0.0545882 47.676 0.161874 47.9209C0.251433 48.1153 0.380725 48.2886 0.541333 48.4294C0.692953 48.5571 0.870978 48.6492 1.06246 48.699C1.24694 48.7508 1.43755 48.7774 1.62911 48.7778C1.84041 48.7799 2.04953 48.7348 2.24131 48.6456C2.43095 48.5626 2.60277 48.4434 2.74725 48.2947C2.88814 48.1473 3.00052 47.9748 3.07865 47.7861C3.15973 47.5948 3.20105 47.3888 3.20007 47.1809V46.7562H2.20842V47.0944C2.21137 47.2099 2.1916 47.3248 2.15024 47.4326C2.11794 47.5134 2.06877 47.5862 2.00604 47.6462C1.94461 47.6959 1.87416 47.733 1.79861 47.7556C1.73164 47.7779 1.6617 47.7899 1.59117 47.7912C1.50263 47.8015 1.41296 47.7881 1.33122 47.7524C1.24948 47.7166 1.17858 47.6599 1.1257 47.5877C1.03222 47.4353 0.986395 47.2581 0.994154 47.0792V43.542C0.988002 43.3458 1.02969 43.1511 1.11558 42.9749C1.16706 42.8948 1.2399 42.8309 1.32578 42.7904C1.41166 42.75 1.50713 42.7346 1.60129 42.746C1.68676 42.743 1.7717 42.7608 1.8488 42.798C1.92591 42.8352 1.99289 42.8907 2.04399 42.9596C2.15496 43.1053 2.21298 43.2848 2.20842 43.4682V43.7963H3.18995V43.4097C3.19195 43.1827 3.15073 42.9575 3.06853 42.746C2.99527 42.5473 2.88251 42.3656 2.73713 42.212Z" />
    <path d="M8.62892 42.169C8.31271 41.902 7.91362 41.7545 7.50066 41.752C7.29868 41.7528 7.09838 41.7889 6.9087 41.8588C6.71613 41.9278 6.53841 42.0331 6.38505 42.169C6.22076 42.3167 6.08968 42.4978 6.00053 42.7005C5.90063 42.9322 5.85146 43.1828 5.85634 43.4354V47.0743C5.8495 47.3302 5.89873 47.5846 6.00053 47.8193C6.09028 48.015 6.22152 48.1886 6.38505 48.3279C6.53665 48.4687 6.71468 48.5776 6.9087 48.6483C7.09838 48.7181 7.29868 48.7543 7.50066 48.7551C7.70269 48.7547 7.90307 48.7186 8.09262 48.6483C8.28995 48.5766 8.47195 48.4679 8.62892 48.3279C8.7871 48.186 8.91454 48.0129 9.00332 47.8193C9.10512 47.5846 9.15435 47.3302 9.14751 47.0743V43.4354C9.15239 43.1828 9.10322 42.9322 9.00332 42.7005C8.91505 42.5 8.78775 42.3193 8.62892 42.169ZM8.16598 47.0743C8.17434 47.1713 8.16095 47.2689 8.1268 47.36C8.09265 47.4511 8.03861 47.5333 7.96866 47.6007C7.83768 47.7105 7.67251 47.7707 7.50193 47.7707C7.33135 47.7707 7.16617 47.7105 7.03519 47.6007C6.96524 47.5333 6.9112 47.4511 6.87705 47.36C6.8429 47.2689 6.82952 47.1713 6.83787 47.0743V43.4354C6.82952 43.3384 6.8429 43.2407 6.87705 43.1496C6.9112 43.0585 6.96524 42.9763 7.03519 42.909C7.16617 42.7991 7.33135 42.739 7.50193 42.739C7.67251 42.739 7.83768 42.7991 7.96866 42.909C8.03861 42.9763 8.09265 43.0585 8.1268 43.1496C8.16095 43.2407 8.17434 43.3384 8.16598 43.4354V47.0743Z" />
    <path d="M16.3673 48.6993V41.8105H15.4136L14.1614 45.4571H14.1437L12.8813 41.8105H11.9377V48.6993H12.9218V44.5086H12.9395L13.9033 47.4711H14.3941L15.3655 44.5086H15.3832V48.6993H16.3673Z" />
    <path d="M21.9581 42.294C21.8065 42.124 21.6153 41.9947 21.4015 41.9177C21.1712 41.8428 20.9302 41.8067 20.6881 41.8109H19.226V48.6996H20.2075V46.0092H20.7134C21.0197 46.0232 21.3244 45.9584 21.5988 45.8211C21.822 45.6971 22.0081 45.5154 22.1377 45.2947C22.2512 45.1114 22.3277 44.9075 22.3628 44.6945C22.4014 44.4353 22.4192 44.1734 22.4159 43.9113C22.4255 43.5805 22.3932 43.2498 22.3198 42.9272C22.2543 42.6888 22.1299 42.471 21.9581 42.294ZM21.4521 44.3945C21.4479 44.5192 21.4168 44.6415 21.361 44.753C21.3049 44.859 21.2162 44.9437 21.1081 44.9946C20.9627 45.0596 20.8041 45.0892 20.6451 45.0811H20.1974V42.739H20.7033C20.8557 42.7316 21.0075 42.7612 21.146 42.8255C21.2475 42.8837 21.3281 42.9727 21.3762 43.0798C21.4299 43.2008 21.4591 43.3313 21.4622 43.4638C21.4622 43.6087 21.4622 43.7613 21.4622 43.9215C21.4622 44.0817 21.4723 44.247 21.4622 44.3945H21.4521Z" />
    <path d="M26.6077 41.8105H25.8032L24.2854 48.6993H25.2669L25.5553 47.2193H26.8935L27.1819 48.6993H28.1635L26.6077 41.8105ZM25.702 46.281L26.1852 43.7838H26.2029L26.6836 46.281H25.702Z" />
    <path d="M32.9497 45.9606H32.932L31.4496 41.8105H30.506V48.6993H31.4875V44.5569H31.5078L33.0079 48.6993H33.9312V41.8105H32.9497V45.9606Z" />
    <path d="M38.9476 41.8105L38.1583 44.5493H38.1381L37.3488 41.8105H36.3091L37.6574 45.7877V48.6993H38.639V45.7877L39.9873 41.8105H38.9476Z" />
    <path d="M0 50.6442H0.473058V51.9716H0.794333V50.6442H1.26486V50.3721H0V50.6442Z" />
    <path d="M3.97672 50.3721L3.35693 51.9716H3.69845L3.82999 51.6079H4.46748L4.60409 51.9716H4.95319L4.31823 50.3721H3.97672ZM3.92612 51.3384L4.14368 50.7459L4.36123 51.3384H3.92612Z"/>
    <path d="M7.90793 51.3821H8.27727V51.5881C8.16941 51.6746 8.03576 51.722 7.89781 51.7229C7.8333 51.7265 7.76886 51.7145 7.70988 51.688C7.65091 51.6614 7.59911 51.6211 7.55883 51.5703C7.47402 51.4485 7.43217 51.3017 7.43993 51.1533C7.43993 50.7973 7.59424 50.6193 7.90034 50.6193C7.98091 50.6112 8.06168 50.6325 8.12804 50.6791C8.19439 50.7257 8.24194 50.7947 8.26209 50.8735L8.57831 50.8125C8.51001 50.4997 8.28486 50.3421 7.90034 50.3421C7.69468 50.3366 7.4947 50.4103 7.34127 50.5481C7.26069 50.6276 7.19834 50.7239 7.15858 50.8302C7.11882 50.9365 7.10261 51.0502 7.11107 51.1634C7.10175 51.3823 7.17493 51.5966 7.31598 51.7636C7.39434 51.8444 7.4892 51.9071 7.59401 51.9475C7.69883 51.9879 7.8111 52.0049 7.92311 51.9975C8.17338 52.0045 8.41652 51.9133 8.60108 51.7432V51.1126H7.90793V51.3821Z" />
    <path d="M11.9226 50.3721H11.5988V51.9716H12.7194V51.6995H11.9226V50.3721Z" />
    <path d="M15.3175 50.3721H14.9937V51.9716H15.3175V50.3721Z" />
    <path d="M18.6365 51.4401L17.9813 50.3721H17.6676V51.9716H17.9686V50.9264L18.6112 51.9716H18.9325V50.3721H18.6365V51.4401Z" />
    <path d="M21.6368 51.2672H22.4337V50.9951H21.6368V50.6442H22.4944V50.3721H21.313V51.9716H22.5273V51.6995H21.6368V51.2672Z" />
    <path d="M28.9122 51.0027H28.2823V50.3721H27.9611V51.9716H28.2823V51.2723H28.9122V51.9716H29.2335V50.3721H28.9122V51.0027Z" />
    <path d="M31.9302 51.2672H32.7296V50.9951H31.9302V50.6442H32.7903V50.3721H31.6089V51.9716H32.8206V51.6995H31.9302V51.2672Z" />
    <path d="M36.0233 51.2674C36.3015 51.2241 36.4432 51.0766 36.4432 50.8224C36.4513 50.7543 36.441 50.6854 36.4134 50.6227C36.3858 50.5601 36.3419 50.5061 36.2863 50.4663C36.1415 50.3936 35.9799 50.3611 35.8183 50.3723H35.1404V51.9717H35.4617V51.303H35.5249C35.5934 51.2987 35.6619 51.3109 35.7247 51.3386C35.7717 51.3675 35.8108 51.4077 35.8386 51.4555L36.1877 51.9641H36.5722L36.3774 51.6513C36.2913 51.4969 36.1699 51.3653 36.0233 51.2674ZM35.6994 51.0461H35.4617V50.6444H35.7146C35.8248 50.6354 35.9357 50.6484 36.041 50.6825C36.0644 50.7031 36.0828 50.7288 36.095 50.7576C36.1072 50.7865 36.1127 50.8176 36.1113 50.8489C36.1098 50.8802 36.1014 50.9107 36.0866 50.9382C36.0718 50.9658 36.051 50.9896 36.0258 51.008C35.9202 51.0404 35.8096 51.0533 35.6994 51.0461Z" />
    <path d="M39.1096 51.2672H39.9064V50.9951H39.1096V50.6442H39.9697V50.3721H38.7858V51.9716H40V51.6995H39.1096V51.2672Z" />
  </symbol>

  <symbol  viewBox="0 0 45 42" id = "item3">
    <path d="M7.40628 41.1018C7.42219 41.1022 7.43786 41.1053 7.45238 41.111C7.46689 41.1167 7.47995 41.1248 7.4908 41.135L7.70892 41.3435C7.53961 41.5122 7.33035 41.6472 7.09546 41.7391C6.82039 41.8395 6.52394 41.8879 6.22572 41.8813C5.94548 41.8863 5.66705 41.8411 5.40777 41.7486C5.17389 41.6636 4.96376 41.536 4.79159 41.3743C4.61588 41.2065 4.48054 41.01 4.39353 40.7962C4.29824 40.5578 4.25119 40.3069 4.25448 40.0546C4.25061 39.8007 4.30147 39.5483 4.40443 39.3107C4.49968 39.0955 4.64335 38.8989 4.82704 38.7326C5.01321 38.5694 5.23592 38.4412 5.48139 38.3558C5.74992 38.2654 6.03588 38.2203 6.32387 38.2232C6.59138 38.2175 6.85747 38.2586 7.10637 38.344C7.32231 38.4254 7.52058 38.5384 7.69256 38.6781L7.50988 38.9008C7.49726 38.9165 7.48158 38.9301 7.46353 38.941C7.44198 38.9539 7.41593 38.9598 7.38992 38.9576C7.36162 38.9559 7.33434 38.9478 7.31085 38.9339L7.2127 38.8747L7.07637 38.7989C7.01753 38.7707 6.95649 38.7462 6.8937 38.7255C6.81283 38.7003 6.72989 38.6805 6.64559 38.6662C6.5386 38.6491 6.42992 38.6412 6.32114 38.6425C6.11376 38.6403 5.90796 38.6741 5.71587 38.742C5.53672 38.805 5.37501 38.9003 5.24146 39.0216C5.10551 39.1507 5.00074 39.3021 4.93337 39.467C4.85658 39.6556 4.81874 39.8545 4.82158 40.0546C4.81831 40.2578 4.85615 40.4598 4.93337 40.6516C4.9999 40.8151 5.10272 40.9656 5.23601 41.0947C5.36088 41.215 5.51567 41.309 5.6886 41.3695C5.86657 41.4336 6.0576 41.4659 6.25025 41.4643C6.36154 41.4658 6.47278 41.4594 6.58288 41.4453C6.76267 41.4263 6.93513 41.372 7.08728 41.2866C7.16359 41.2429 7.23563 41.1937 7.30267 41.1397C7.3307 41.1165 7.36756 41.103 7.40628 41.1018Z" />
    <path d="M13.7044 40.0537C13.7078 40.3051 13.6579 40.5548 13.5572 40.7905C13.4684 41.0042 13.3284 41.1992 13.1465 41.3625C12.9646 41.5259 12.745 41.6539 12.5021 41.7381C11.9683 41.915 11.3782 41.915 10.8444 41.7381C10.603 41.6526 10.3848 41.5243 10.2037 41.3614C10.0219 41.1951 9.88095 40.9984 9.78927 40.7834C9.59287 40.3062 9.59287 39.7846 9.78927 39.3074C9.88228 39.0922 10.0231 38.895 10.2037 38.727C10.3864 38.5693 10.6045 38.4459 10.8444 38.3646C11.3775 38.1845 11.969 38.1845 12.5021 38.3646C12.7443 38.45 12.9634 38.5783 13.1455 38.7412C13.325 38.9059 13.465 39.1 13.5572 39.3122C13.6582 39.5494 13.7081 39.8008 13.7044 40.0537ZM13.1319 40.0537C13.1362 39.8526 13.1011 39.6523 13.0283 39.4614C12.9672 39.2979 12.8679 39.1471 12.7366 39.0184C12.6087 38.8967 12.4513 38.8012 12.2758 38.7389C11.8879 38.6093 11.4586 38.6093 11.0707 38.7389C10.8952 38.8012 10.7378 38.8967 10.6099 39.0184C10.4768 39.1463 10.3764 39.2973 10.3155 39.4614C10.1768 39.8471 10.1768 40.2603 10.3155 40.646C10.377 40.8098 10.4773 40.9607 10.6099 41.089C10.7379 41.2099 10.8953 41.3046 11.0707 41.3661C11.4593 41.4924 11.8872 41.4924 12.2758 41.3661C12.4512 41.3046 12.6086 41.2099 12.7366 41.089C12.8673 40.96 12.9665 40.8093 13.0283 40.646C13.1015 40.4551 13.1365 40.2548 13.1319 40.0537Z"/>
    <path d="M18.0013 40.6746L18.0586 40.8072C18.0804 40.7599 18.0995 40.7172 18.1213 40.6746C18.1421 40.63 18.1657 40.5865 18.1922 40.5443L19.5854 38.3437C19.6127 38.3058 19.6372 38.2821 19.6645 38.275C19.7015 38.2652 19.7403 38.2612 19.779 38.2632H20.1907V41.8424H19.7026V39.2107C19.7026 39.1775 19.7026 39.1396 19.7026 39.0994C19.7 39.0583 19.7 39.0172 19.7026 38.9762L18.3012 41.2076C18.2834 41.241 18.255 41.2692 18.2192 41.289C18.1834 41.3087 18.1418 41.3191 18.0995 41.3189H18.0204C17.9779 41.3194 17.9362 41.3091 17.9004 41.2894C17.8646 41.2696 17.8362 41.2412 17.8186 41.2076L16.3763 38.962C16.3763 39.0046 16.3763 39.0472 16.3763 39.0899C16.3763 39.1325 16.3763 39.1704 16.3763 39.2036V41.8353H15.9047V38.2632H16.3164C16.355 38.2612 16.3938 38.2652 16.4309 38.275C16.4647 38.2896 16.4916 38.3139 16.5072 38.3437L17.9304 40.5467C17.9584 40.5874 17.9821 40.6302 18.0013 40.6746Z" />
    <path d="M23.2444 40.4967V41.8374H22.6991V38.2631H23.9151C24.1446 38.2592 24.3735 38.2856 24.594 38.3412C24.7705 38.3847 24.9341 38.4606 25.0739 38.5639C25.195 38.6607 25.2883 38.7807 25.3465 38.9145C25.4109 39.0603 25.4423 39.2155 25.4392 39.3716C25.4416 39.5284 25.4073 39.6839 25.3383 39.8288C25.2728 39.9659 25.1721 40.0882 25.0439 40.1864C24.904 40.294 24.7395 40.3747 24.5613 40.4233C24.349 40.4822 24.127 40.5103 23.9042 40.5062L23.2444 40.4967ZM23.2444 40.113H23.9042C24.0475 40.1146 24.1902 40.0962 24.3268 40.0585C24.4395 40.0256 24.5433 39.9732 24.6322 39.9046C24.7141 39.839 24.7775 39.758 24.8176 39.6677C24.8622 39.5722 24.8844 39.4699 24.883 39.3669C24.8893 39.2675 24.8707 39.1681 24.8283 39.0757C24.7859 38.9832 24.7208 38.8999 24.6376 38.8315C24.4293 38.6902 24.1677 38.6218 23.9042 38.6397H23.2444V40.113Z" />
    <path d="M30.5731 41.8423H30.1423C30.0991 41.8437 30.0566 41.832 30.0223 41.8091C29.9914 41.7868 29.9671 41.7584 29.9514 41.7262L29.5806 40.8615H27.7185L27.334 41.7262C27.3199 41.7578 27.2964 41.7856 27.2659 41.8067C27.2312 41.831 27.1877 41.8436 27.1432 41.8423H26.7124L28.3483 38.2627H28.9154L30.5731 41.8423ZM27.8739 40.5133H29.4116L28.7627 39.0563C28.7131 38.9467 28.6721 38.8343 28.64 38.7199L28.5773 38.9071C28.5582 38.9639 28.5364 39.016 28.5173 39.0587L27.8739 40.5133Z" />
    <path d="M32.9288 38.2794C32.9614 38.2949 32.9894 38.3168 33.0106 38.3433L35.3962 41.0416C35.3962 40.9989 35.3962 40.9563 35.3962 40.916C35.3962 40.8758 35.3962 40.8355 35.3962 40.7976V38.2628H35.8843V41.8423H35.6116C35.5729 41.8433 35.5345 41.836 35.4998 41.821C35.4662 41.8039 35.4365 41.7814 35.4126 41.7546L33.0297 39.0587C33.0323 39.0998 33.0323 39.1409 33.0297 39.1819C33.0297 39.2222 33.0297 39.2577 33.0297 39.2909V41.8423H32.5416V38.2628H32.8306C32.8644 38.262 32.8979 38.2676 32.9288 38.2794Z" />
    <path d="M39.9031 40.4193V41.8407H39.3578V40.4193L37.8501 38.2635H38.3381C38.3802 38.2614 38.4218 38.2723 38.4554 38.2943C38.4851 38.3173 38.51 38.3446 38.529 38.3749L39.4724 39.7655C39.5105 39.8247 39.5432 39.8792 39.5705 39.9313C39.5978 39.9834 39.6196 40.0332 39.6387 40.0829L39.7096 39.9289C39.736 39.8726 39.767 39.818 39.8023 39.7655L40.732 38.3654C40.7516 38.3375 40.7754 38.312 40.8029 38.2896C40.8352 38.265 40.8772 38.2523 40.9201 38.2541H41.4136L39.9031 40.4193Z" />
    <path d="M17.7314 32.2563C17.9686 32.2823 18.2086 32.3036 18.4512 32.3226C22.1301 30.8927 25.2422 28.5525 27.3987 25.5943C29.5552 22.6362 30.6603 19.1914 30.5759 15.6905L26.5216 12.168C27.346 15.8953 26.9604 19.7483 25.408 23.2961C23.8555 26.8438 21.1976 29.9462 17.7314 32.2563Z" />
    <path d="M16.2837 32.0929L16.3928 32.1118C20.0966 29.81 22.9205 26.5957 24.4993 22.8845C26.078 19.1733 26.3389 15.1359 25.2483 11.2945L19.4737 6.27734C21.8094 10.4014 22.7495 15.0168 22.1848 19.5868C21.6201 24.1568 19.5737 28.4936 16.2837 32.0929Z" />
    <path d="M35.868 19.8271C34.8869 23.6737 32.5042 27.1429 29.0736 29.7195C28.0717 30.4761 26.991 31.1502 25.8455 31.733C28.6389 31.0196 31.2065 29.7584 33.3503 28.0466C35.494 26.3347 37.1567 24.218 38.21 21.8596L35.868 19.8271Z" />
    <path d="M34.949 19.2604L31.6146 16.3633C31.5508 19.6664 30.47 22.8944 28.4845 25.7117C26.499 28.5291 23.6813 30.833 20.3242 32.3841H20.3406C21.0887 32.3838 21.8362 32.3451 22.579 32.268C25.7164 31.1554 28.488 29.3853 30.6464 27.1156C32.8049 24.8459 34.283 22.1472 34.949 19.2604Z" />
    <path d="M16.7663 4.16115L12.7883 0.700195C9.23222 1.89415 6.1738 3.99308 4.01337 6.72227C1.85294 9.45146 0.69115 12.6838 0.680054 15.9961H0.680054C0.693382 19.6562 2.11126 23.2079 4.70929 26.089C7.30731 28.9702 10.9371 31.0162 15.0241 31.9033C18.6725 28.0412 20.8086 23.269 21.1219 18.28C21.4352 13.291 19.9094 8.34519 16.7663 4.16115Z" />
    <path d="M44.1401 18.7277C44.1257 14.3852 42.1339 10.2242 38.5997 7.15355C35.0656 4.08294 30.2764 2.35235 25.2784 2.33985C22.9688 2.33777 20.6789 2.70806 18.5249 3.4319L42.8805 24.593C43.7144 22.7225 44.1415 20.7337 44.1401 18.7277Z" />
  </symbol>

  <symbol  viewBox="0 0 85 42" id = "item4">
    <path d="M13.1462 13.1035H13.1433C10.7453 13.1035 8.80127 14.8311 8.80127 16.9622V16.9647C8.80127 19.0958 10.7453 20.8234 13.1433 20.8234H13.1462C15.5442 20.8234 17.4882 19.0958 17.4882 16.9647V16.9622C17.4882 14.8311 15.5442 13.1035 13.1462 13.1035Z" />
    <path d="M45.195 11.8695C45.1882 8.90954 43.8623 6.07247 41.5074 3.9792C39.1525 1.88592 35.9604 0.706916 32.6297 0.700195V0.700195C29.298 0.705573 26.1045 1.88398 23.7484 3.9774C21.3922 6.07082 20.0655 8.90866 20.0587 11.8695V28.1924C20.0587 28.1924 45.1922 25.7047 45.195 11.8721V11.8695Z" />
    <path d="M0 33.5495C0.00604098 35.6091 0.929149 37.5828 2.56761 39.0394C4.20607 40.496 6.42668 41.317 8.74418 41.3231C11.0612 41.317 13.2814 40.4963 14.9197 39.0403C16.5581 37.5843 17.4816 35.6112 17.4884 33.552V22.1943C17.4884 22.1943 0 23.9266 0 33.5495ZM8.74418 35.5844C8.2913 35.5844 7.84859 35.4651 7.47203 35.2415C7.09548 35.0179 6.80199 34.7001 6.62868 34.3282C6.45537 33.9564 6.41002 33.5472 6.49838 33.1525C6.58673 32.7577 6.80481 32.3951 7.12505 32.1105C7.44528 31.8259 7.85328 31.6321 8.29746 31.5536C8.74164 31.4751 9.20204 31.5154 9.62045 31.6694C10.0389 31.8234 10.3965 32.0843 10.6481 32.4189C10.8997 32.7535 11.034 33.147 11.034 33.5495C11.0351 33.8173 10.9767 34.0828 10.8622 34.3306C10.7476 34.5783 10.5791 34.8036 10.3664 34.9933C10.1536 35.1831 9.90081 35.3337 9.62244 35.4364C9.34406 35.5392 9.04561 35.5921 8.74418 35.5921V35.5844Z" />
    <path d="M26.4177 34.4639H24.7302V36.207H23.8513V31.9414H26.6287V32.6533H24.7302V33.7549H26.4177V34.4639ZM30.6423 34.1709C30.6423 34.5908 30.5681 34.959 30.4197 35.2754C30.2712 35.5918 30.0583 35.8359 29.781 36.0078C29.5056 36.1797 29.1892 36.2656 28.8318 36.2656C28.4783 36.2656 28.1628 36.1807 27.8855 36.0107C27.6082 35.8408 27.3933 35.5986 27.241 35.2842C27.0886 34.9678 27.0115 34.6045 27.0095 34.1943V33.9834C27.0095 33.5635 27.0847 33.1943 27.2351 32.876C27.3875 32.5557 27.6013 32.3105 27.8767 32.1406C28.1541 31.9688 28.4705 31.8828 28.8259 31.8828C29.1814 31.8828 29.4968 31.9688 29.7722 32.1406C30.0496 32.3105 30.2634 32.5557 30.4138 32.876C30.5662 33.1943 30.6423 33.5625 30.6423 33.9805V34.1709ZM29.7517 33.9775C29.7517 33.5303 29.6716 33.1904 29.5115 32.958C29.3513 32.7256 29.1228 32.6094 28.8259 32.6094C28.531 32.6094 28.3035 32.7246 28.1433 32.9551C27.9832 33.1836 27.9021 33.5195 27.9001 33.9629V34.1709C27.9001 34.6064 27.9802 34.9443 28.1404 35.1846C28.3005 35.4248 28.531 35.5449 28.8318 35.5449C29.1267 35.5449 29.3533 35.4297 29.5115 35.1992C29.6697 34.9668 29.7498 34.6289 29.7517 34.1855V33.9775ZM33.4929 35.0879C33.4929 34.9219 33.4343 34.7949 33.3171 34.707C33.2 34.6172 32.989 34.5234 32.6843 34.4258C32.3796 34.3262 32.1384 34.2285 31.9607 34.1328C31.4763 33.8711 31.2341 33.5186 31.2341 33.0752C31.2341 32.8447 31.2986 32.6396 31.4275 32.46C31.5583 32.2783 31.7449 32.1367 31.9871 32.0352C32.2312 31.9336 32.5046 31.8828 32.8074 31.8828C33.1121 31.8828 33.3835 31.9385 33.6218 32.0498C33.8601 32.1592 34.0447 32.3145 34.1755 32.5156C34.3083 32.7168 34.3748 32.9453 34.3748 33.2012H33.4958C33.4958 33.0059 33.4343 32.8545 33.3113 32.7471C33.1882 32.6377 33.0154 32.583 32.7927 32.583C32.5779 32.583 32.4109 32.6289 32.2917 32.7207C32.1726 32.8105 32.113 32.9297 32.113 33.0781C32.113 33.2168 32.1824 33.333 32.321 33.4268C32.4617 33.5205 32.6677 33.6084 32.9392 33.6904C33.4392 33.8408 33.8035 34.0273 34.032 34.25C34.2605 34.4727 34.3748 34.75 34.3748 35.082C34.3748 35.4512 34.2351 35.7412 33.9558 35.9521C33.6765 36.1611 33.3005 36.2656 32.8279 36.2656C32.4998 36.2656 32.2009 36.2061 31.9314 36.0869C31.6619 35.9658 31.4558 35.8008 31.3132 35.5918C31.1726 35.3828 31.1023 35.1406 31.1023 34.8652H31.9841C31.9841 35.3359 32.2654 35.5713 32.8279 35.5713C33.0369 35.5713 33.2 35.5293 33.3171 35.4453C33.4343 35.3594 33.4929 35.2402 33.4929 35.0879ZM38.1833 32.6533H36.8767V36.207H35.9978V32.6533H34.7087V31.9414H38.1833V32.6533ZM41.2537 34.3584H39.5662V35.501H41.5466V36.207H38.6873V31.9414H41.5408V32.6533H39.5662V33.6699H41.2537V34.3584ZM43.6414 34.6455H42.9412V36.207H42.0623V31.9414H43.6472C44.1511 31.9414 44.5398 32.0537 44.8132 32.2783C45.0867 32.5029 45.2234 32.8203 45.2234 33.2305C45.2234 33.5215 45.1599 33.7646 45.033 33.96C44.908 34.1533 44.7175 34.3076 44.4617 34.4229L45.3845 36.166V36.207H44.4412L43.6414 34.6455ZM42.9412 33.9336H43.6501C43.8708 33.9336 44.0417 33.8779 44.1628 33.7666C44.2839 33.6533 44.3445 33.498 44.3445 33.3008C44.3445 33.0996 44.2869 32.9414 44.1716 32.8262C44.0583 32.7109 43.8835 32.6533 43.6472 32.6533H42.9412V33.9336ZM48.2673 34.7041V36.207H47.3884V31.9414H49.0525C49.3728 31.9414 49.6541 32 49.8962 32.1172C50.1404 32.2344 50.3279 32.4014 50.4587 32.6182C50.5896 32.833 50.655 33.0781 50.655 33.3535C50.655 33.7715 50.5115 34.1016 50.2244 34.3438C49.9392 34.584 49.5437 34.7041 49.0378 34.7041H48.2673ZM48.2673 33.9922H49.0525C49.2849 33.9922 49.4617 33.9375 49.5828 33.8281C49.7058 33.7188 49.7673 33.5625 49.7673 33.3594C49.7673 33.1504 49.7058 32.9814 49.5828 32.8525C49.4597 32.7236 49.2898 32.6572 49.073 32.6533H48.2673V33.9922ZM53.8279 34.3584H52.1404V35.501H54.1208V36.207H51.2615V31.9414H54.115V32.6533H52.1404V33.6699H53.8279V34.3584ZM57.906 32.6533H56.5994V36.207H55.7205V32.6533H54.4314V31.9414H57.906V32.6533ZM60.9763 34.3584H59.2888V35.501H61.2693V36.207H58.4099V31.9414H61.2634V32.6533H59.2888V33.6699H60.9763V34.3584ZM63.364 34.6455H62.6638V36.207H61.7849V31.9414H63.3699C63.8738 31.9414 64.2625 32.0537 64.5359 32.2783C64.8093 32.5029 64.946 32.8203 64.946 33.2305C64.946 33.5215 64.8826 33.7646 64.7556 33.96C64.6306 34.1533 64.4402 34.3076 64.1843 34.4229L65.1072 36.166V36.207H64.1638L63.364 34.6455ZM62.6638 33.9336H63.3728C63.5935 33.9336 63.7644 33.8779 63.8855 33.7666C64.0066 33.6533 64.0671 33.498 64.0671 33.3008C64.0671 33.0996 64.0095 32.9414 63.8943 32.8262C63.781 32.7109 63.6062 32.6533 63.3699 32.6533H62.6638V33.9336ZM67.8289 35.0879C67.8289 34.9219 67.7703 34.7949 67.6531 34.707C67.5359 34.6172 67.325 34.5234 67.0203 34.4258C66.7156 34.3262 66.4744 34.2285 66.2966 34.1328C65.8123 33.8711 65.5701 33.5186 65.5701 33.0752C65.5701 32.8447 65.6345 32.6396 65.7634 32.46C65.8943 32.2783 66.0808 32.1367 66.323 32.0352C66.5671 31.9336 66.8406 31.8828 67.1433 31.8828C67.448 31.8828 67.7195 31.9385 67.9578 32.0498C68.196 32.1592 68.3806 32.3145 68.5115 32.5156C68.6443 32.7168 68.7107 32.9453 68.7107 33.2012H67.8318C67.8318 33.0059 67.7703 32.8545 67.6472 32.7471C67.5242 32.6377 67.3513 32.583 67.1287 32.583C66.9138 32.583 66.7468 32.6289 66.6277 32.7207C66.5085 32.8105 66.449 32.9297 66.449 33.0781C66.449 33.2168 66.5183 33.333 66.657 33.4268C66.7976 33.5205 67.0037 33.6084 67.2751 33.6904C67.7751 33.8408 68.1394 34.0273 68.3679 34.25C68.5964 34.4727 68.7107 34.75 68.7107 35.082C68.7107 35.4512 68.571 35.7412 68.2917 35.9521C68.0125 36.1611 67.6365 36.2656 67.1638 36.2656C66.8357 36.2656 66.5369 36.2061 66.2673 36.0869C65.9978 35.9658 65.7917 35.8008 65.6492 35.5918C65.5085 35.3828 65.4382 35.1406 65.4382 34.8652H66.3201C66.3201 35.3359 66.6013 35.5713 67.1638 35.5713C67.3728 35.5713 67.5359 35.5293 67.6531 35.4453C67.7703 35.3594 67.8289 35.2402 67.8289 35.0879Z" />
  </symbol>


  <symbol  viewBox="0 0 63 47" id = "item5">
    <path d="M4.7569 38.7349C5.00058 39.011 5.13038 39.3569 5.12358 39.7118C5.13601 39.9434 5.0914 40.1745 4.99304 40.3881C4.89469 40.6018 4.74511 40.7924 4.55539 40.9459C4.08201 41.2732 3.49555 41.4333 2.90369 41.3966H0V35.2051H2.84423C3.40566 35.1709 3.96263 35.3163 4.41995 35.6165C4.60363 35.7572 4.74908 35.9351 4.84482 36.1362C4.94055 36.3372 4.98396 36.5559 4.97162 36.7749C4.98831 37.1164 4.87115 37.4522 4.64128 37.7216C4.42059 37.9676 4.1156 38.1382 3.77579 38.2056C4.16101 38.2699 4.50873 38.4575 4.7569 38.7349ZM1.35109 37.8003H2.56674C2.84303 37.819 3.11743 37.7459 3.33974 37.5946C3.43101 37.5188 3.50203 37.4249 3.54728 37.32C3.59254 37.2151 3.61082 37.1021 3.60071 36.9896C3.60929 36.8776 3.59063 36.7653 3.54607 36.6607C3.50151 36.5561 3.43217 36.4618 3.34304 36.3847C3.11408 36.2291 2.83115 36.1549 2.54692 36.176H1.35109V37.8003ZM3.45866 40.1746C3.55623 40.0971 3.63292 40 3.68277 39.8908C3.73262 39.7817 3.75428 39.6635 3.74606 39.5455C3.7535 39.4261 3.73085 39.3067 3.67988 39.1965C3.6289 39.0864 3.55095 38.9885 3.45205 38.9103C3.21421 38.7488 2.9217 38.6696 2.6262 38.6865H1.35109V40.3894H2.64272C2.93345 40.4047 3.22122 40.329 3.45866 40.1746Z" />
    <path d="M10.5709 41.3973L8.98857 38.9776H8.39396V41.3973H7.03296V35.2058H9.60961C10.2591 35.1643 10.9012 35.3527 11.4034 35.7321C11.7635 36.0682 11.9808 36.511 12.0159 36.9807C12.051 37.4504 11.9018 37.9162 11.595 38.294C11.2771 38.6275 10.8428 38.8498 10.3661 38.9231L12.0508 41.3973H10.5709ZM8.39396 38.1337H9.50721C10.2802 38.1337 10.6667 37.8212 10.6667 37.1961C10.6746 37.0684 10.6534 36.9407 10.6045 36.8209C10.5556 36.7011 10.48 36.592 10.3826 36.5004C10.1383 36.3144 9.82374 36.2242 9.50721 36.2494H8.38075L8.39396 38.1337Z" />
    <path d="M18.0101 40.1502H15.298L14.819 41.3963H13.392L15.8827 35.2744H17.4254L19.9063 41.3963H18.4792L18.0101 40.1502ZM17.6467 39.2125L16.6557 36.5992L15.6647 39.2125H17.6467Z" />
    <path d="M27.3225 41.3965H25.9714L22.9421 37.1862V41.3965H21.5944V35.2051H22.9421L25.9714 39.4396V35.2051H27.3225V41.3965Z" />
    <path d="M35.0326 39.9148C34.7532 40.3822 34.3276 40.7625 33.8103 41.0067C33.2222 41.2786 32.5695 41.4127 31.9109 41.3968H29.506V35.2054H31.9109C32.5684 35.1896 33.2202 35.3204 33.8103 35.5865C34.3275 35.8251 34.7536 36.2016 35.0326 36.6663C35.3107 37.1698 35.4556 37.7262 35.4556 38.2905C35.4556 38.8548 35.3107 39.4112 35.0326 39.9148ZM33.4866 39.7665C33.8722 39.3552 34.0842 38.8311 34.0842 38.289C34.0842 37.7469 33.8722 37.2228 33.4866 36.8115C33.0205 36.4389 32.4127 36.2498 31.7952 36.2852H30.8571V40.2928H31.7952C32.4127 40.3282 33.0205 40.1391 33.4866 39.7665Z" />
    <path d="M18.8558 0.766602C18.8558 0.766602 36.2945 6.79474 35.9245 15.5178V30.2721C35.9245 30.2721 18.4991 24.2409 18.8624 15.5178L18.8558 0.766602Z" />
    <path d="M51.4603 26.8181C54.7538 24.7428 58.5633 23.4574 62.5399 23.0796V18.4609C57.9579 20.0779 54.0709 23.0098 51.4603 26.8181Z" />
    <path d="M49.4816 28.2094C52.1773 23.2395 56.8505 19.4045 62.54 17.493V4.18457C62.54 4.18457 37.705 12.7716 38.2303 25.1938V46.2C38.2303 46.2 39.3369 45.8159 41.0778 45.096C41.0778 44.4246 41.0778 43.747 41.1571 43.0665C41.6711 37.2995 44.6654 31.9554 49.4816 28.2094Z" />
    <path d="M47.1197 36.013C47.2502 34.5561 47.5413 33.1151 47.9885 31.7119C44.9896 34.947 43.1734 38.9613 42.7956 43.1905C42.7592 43.5897 42.7394 43.989 42.7295 44.4003C44.14 43.7803 45.7818 43.006 47.5062 42.0956C47.0662 40.0947 46.936 38.0471 47.1197 36.013Z" />
    <path d="M48.1074 36.0886C47.9421 37.9289 48.0454 39.7812 48.4146 41.5965C55.1998 37.8792 62.8241 32.1354 62.5301 25.1938V24.5889C57.6823 25.0855 53.1468 27.0259 49.6204 30.1119C48.7947 32.0243 48.2848 34.0386 48.1074 36.0886Z" />
  </symbol>

  <symbol viewBox="0 0 94 45" id = "item6">
    <path d="M47.425 21.4081C46.9819 20.8183 46.7699 20.1212 46.8203 19.4195V16.5363C46.8203 15.6525 47.0207 14.9808 47.4216 14.5213C47.8224 14.0618 48.511 13.833 49.4871 13.835C50.4044 13.835 51.0555 14.0305 51.4405 14.4216C51.8605 14.9206 52.0648 15.5307 52.018 16.1462V16.8238H50.3772V16.1374C50.383 15.9128 50.3671 15.6881 50.3296 15.4657C50.306 15.3137 50.2234 15.1731 50.0952 15.0669C49.9267 14.9523 49.7145 14.8968 49.5007 14.9114C49.2759 14.8969 49.0529 14.9555 48.8756 15.0757C48.7327 15.1933 48.6374 15.3476 48.6038 15.5156C48.5567 15.7509 48.5351 15.9896 48.5393 16.2283V19.7275C48.5134 20.065 48.5858 20.4028 48.7499 20.71C48.8315 20.814 48.9448 20.8964 49.0774 20.9482C49.2099 20.9999 49.3564 21.019 49.5007 21.0034C49.7109 21.0183 49.9195 20.9614 50.0816 20.845C50.2153 20.7304 50.3013 20.5809 50.3262 20.4197C50.3645 20.1875 50.3816 19.9531 50.3772 19.7187V19.0089H52.018V19.6571C52.0641 20.2986 51.8648 20.9355 51.4507 21.4697C51.0736 21.8979 50.4315 22.112 49.4871 22.112C48.5427 22.112 47.8292 21.8833 47.425 21.4081Z" />
    <path d="M54.2569 21.4374C53.8425 20.9887 53.6353 20.3346 53.6353 19.4694V16.4366C53.6353 15.5801 53.8425 14.9319 54.2569 14.492C54.6714 14.052 55.3644 13.833 56.336 13.835C57.3008 13.835 57.9904 14.054 58.4049 14.492C58.8193 14.9319 59.03 15.5801 59.03 16.4366V19.4694C59.03 20.3258 58.8193 20.9828 58.3981 21.4345C57.9768 21.8862 57.2906 22.112 56.336 22.112C55.3814 22.112 54.6748 21.8833 54.2569 21.4374ZM57.1004 20.71C57.2488 20.4289 57.3164 20.121 57.2974 19.8125V16.0993C57.3165 15.7968 57.25 15.4948 57.1038 15.2194C57.0205 15.1132 56.9044 15.0295 56.7686 14.9776C56.6329 14.9257 56.483 14.9079 56.336 14.9261C56.1886 14.9083 56.0384 14.9264 55.9022 14.9782C55.766 15.03 55.6492 15.1135 55.5648 15.2194C55.4155 15.494 55.3477 15.7964 55.3678 16.0993V19.8301C55.3472 20.1387 55.4148 20.447 55.5648 20.7276C55.6605 20.8223 55.7785 20.8981 55.9109 20.95C56.0434 21.002 56.1872 21.0289 56.3326 21.0289C56.4781 21.0289 56.6219 21.002 56.7543 20.95C56.8867 20.8981 57.0047 20.8223 57.1004 20.7276V20.71Z" />
    <path d="M61.0035 13.9238H62.7701L64.0984 19.5195L65.4573 13.9238H67.1763L67.3496 22.0005H66.079L65.9431 16.3873L64.6318 22.0005H63.6126L62.2537 16.3668L62.128 22.0005H60.8439L61.0035 13.9238Z" />
    <path d="M69.3303 13.9238H72.082C73.6673 13.9238 74.46 14.6883 74.46 16.2172C74.46 17.6816 73.6254 18.4128 71.9563 18.4109H71.0187V22.0005H69.3201L69.3303 13.9238ZM71.6811 17.3756C71.8489 17.394 72.0194 17.3807 72.1807 17.3367C72.342 17.2926 72.4903 17.2189 72.6153 17.1205C72.8101 16.8477 72.896 16.5273 72.8599 16.2084C72.8688 15.962 72.8414 15.7157 72.7784 15.4752C72.7542 15.3949 72.7117 15.3196 72.6533 15.2536C72.595 15.1877 72.522 15.1324 72.4387 15.0911C72.2029 14.9934 71.9422 14.949 71.6811 14.962H71.0221V17.3756H71.6811Z" />
    <path d="M76.9094 13.9238H78.7337L80.6056 22.0005H79.0225L78.6522 20.1383H77.0249L76.6445 22.0005H75.0376L76.9094 13.9238ZM78.4687 19.2027L77.8335 15.8125L77.1982 19.2027H78.4687Z" />
    <path d="M82.1173 13.9238H83.3063L85.5825 18.5311V13.9238H86.9923V22.0005H85.861L83.5713 17.1909V22.0005H82.1139L82.1173 13.9238Z" />
    <path d="M90.2945 18.9204L88.4022 13.9346H89.9955L91.1506 17.1373L92.2343 13.9346H93.7936L91.9251 18.9204V22H90.2945V18.9204Z" />
    <path d="M50.0477 25.5312V25.9536H48.6617V29.2355H48.0807V25.9536H46.6879V25.5312H50.0477Z" />
    <path d="M54.3927 29.2363H53.9442C53.8987 29.2388 53.8538 29.2262 53.8185 29.2011C53.7846 29.1796 53.7587 29.1501 53.7438 29.1161L53.3429 28.2362H51.4201L51.0192 29.1161C51.0078 29.1529 50.9869 29.187 50.958 29.2158C50.9225 29.2403 50.8778 29.2529 50.8324 29.251H50.3839L52.0825 25.5469H52.6737L54.3927 29.2363ZM51.5797 27.8608H53.1833L52.5038 26.3534C52.4537 26.2394 52.4117 26.1228 52.3781 26.0044C52.3543 26.0748 52.3339 26.1422 52.3136 26.2009L52.2524 26.3563L51.5797 27.8608Z" />
    <path d="M57.3212 28.8724C57.4275 28.8772 57.5341 28.8772 57.6405 28.8724C57.7323 28.8642 57.8232 28.8495 57.9123 28.8284C57.9955 28.8107 58.0772 28.7882 58.1569 28.7609C58.2316 28.7345 58.3064 28.7022 58.3845 28.67V27.8369H57.705C57.6882 27.8378 57.6714 27.8356 57.6556 27.8305C57.6399 27.8255 57.6255 27.8177 57.6133 27.8076C57.6022 27.7993 57.5933 27.7889 57.5875 27.7772C57.5816 27.7655 57.5788 27.7529 57.5794 27.7401V27.4556H58.8975V28.8753C58.7899 28.9417 58.6763 29.0006 58.5577 29.0513C58.4366 29.1029 58.3104 29.1451 58.1807 29.1774C58.0417 29.2127 57.8997 29.2382 57.756 29.2537C57.5913 29.2695 57.4257 29.2773 57.26 29.2771C56.967 29.2793 56.6763 29.2325 56.4039 29.1393C56.1496 29.051 55.9185 28.9193 55.7245 28.7521C55.5353 28.5832 55.3864 28.3839 55.2862 28.1655C55.1792 27.9199 55.1261 27.6593 55.13 27.397C55.1264 27.133 55.1782 26.8706 55.2828 26.6226C55.3805 26.4031 55.5297 26.2033 55.7211 26.036C55.9149 25.8693 56.1461 25.7386 56.4005 25.6517C56.6914 25.5572 57.0002 25.5105 57.311 25.5138C57.4691 25.5137 57.627 25.5245 57.7832 25.5461C57.9213 25.5655 58.0567 25.597 58.1875 25.64C58.3063 25.6785 58.4202 25.7277 58.5272 25.7866C58.6313 25.8445 58.7301 25.9092 58.8227 25.9802L58.6597 26.209C58.6469 26.2299 58.6279 26.2475 58.6046 26.2598C58.5813 26.2722 58.5545 26.279 58.5272 26.2794C58.4896 26.2784 58.4531 26.2682 58.4219 26.2501C58.3709 26.2266 58.3165 26.1973 58.2554 26.1621C58.1832 26.123 58.107 26.0896 58.0278 26.0624C57.9265 26.0273 57.822 25.9998 57.7152 25.9802C57.5729 25.9576 57.4285 25.9468 57.2838 25.948C57.0597 25.9458 56.8371 25.9807 56.6281 26.0506C56.4391 26.1161 56.2687 26.2162 56.1287 26.3439C55.9879 26.4771 55.8804 26.6339 55.8128 26.8045C55.661 27.2056 55.661 27.6381 55.8128 28.0393C55.8871 28.2135 56.0029 28.3724 56.1525 28.5057C56.2918 28.6328 56.4609 28.7328 56.6485 28.799C56.8645 28.8631 57.0935 28.888 57.3212 28.8724Z" />
    <path d="M62.7363 28.8132H64.5912V29.2355H62.1689V25.5312H62.7499L62.7363 28.8132Z" />
    <path d="M66.5208 29.2355H65.9398V25.5312H66.5208V29.2355Z" />
    <path d="M68.6814 25.5489C68.7159 25.5659 68.746 25.5888 68.7697 25.6163L71.253 28.4086C71.2497 28.3647 71.2497 28.3206 71.253 28.2767C71.253 28.2356 71.253 28.1945 71.253 28.1564V25.5166H71.7592V29.2358H71.4671C71.4238 29.2388 71.3804 29.2317 71.3414 29.2153C71.3061 29.1968 71.275 29.1729 71.2496 29.1449L68.7697 26.3555C68.7697 26.3995 68.7697 26.4405 68.7697 26.4816C68.7697 26.5227 68.7697 26.5608 68.7697 26.596V29.2358H68.2839V25.5313H68.5863C68.6191 25.5313 68.6515 25.5373 68.6814 25.5489Z" />
    <path d="M76.0364 25.5312V25.9389H73.9777V27.162H75.6457V27.555H73.9777V28.8191H76.0364V29.2268H73.3798V25.5312H76.0364Z" />
    <path d="M15.1618 2.65538L40.9568 8.9787V31.1367L15.1618 24.8163V2.65538ZM13.5073 0.766602V25.8927L42.6079 33.0284V7.90526L13.5073 0.766602Z" />
    <path d="M29.1039 44.6919L0 37.5502V12.4268L29.1039 19.5655V44.6919Z" />
    <path d="M13.9897 2.37086L39.4484 8.61488L28.6215 17.9648L3.1594 11.7178L13.9897 2.37086ZM13.5073 0.766602L0 12.4276L29.1039 19.5661L42.6078 7.90513L13.5073 0.766602Z" />
    <path d="M30.7415 43.2786L42.6078 33.0314L30.7415 30.1191V43.2786Z" />
  </symbol>











  


</svg>


